<?xml version="1.0" standalone="no"?>
<!DOCTYPE svg PUBLIC "-//W3C//DTD SVG 20010904//EN"
 "http://www.w3.org/TR/2001/REC-SVG-20010904/DTD/svg10.dtd">
<svg version="1.0" xmlns="http://www.w3.org/2000/svg"
 width="398.000000pt" height="398.000000pt" viewBox="0 0 398.000000 398.000000"
 preserveAspectRatio="xMidYMid meet">

<g transform="translate(0.000000,398.000000) scale(0.100000,-0.100000)"
fill="white" stroke="none">
<path d="M2011 3477 l-19 -44 -70 -6 c-151 -14 -340 -89 -474 -188 -123 -92
-244 -242 -309 -384 -37 -83 -79 -244 -79 -306 0 -50 -23 -89 -53 -89 -7 0
-19 -6 -25 -12 -10 -10 -4 -17 30 -33 43 -20 43 -20 50 -86 25 -260 194 -535
417 -684 144 -95 266 -141 437 -165 l81 -12 13 -39 c7 -21 16 -39 21 -39 4 0
14 17 22 39 17 42 32 51 82 51 84 0 257 52 362 110 278 152 479 447 509 747 7
61 7 62 45 77 22 9 39 20 39 24 0 5 -17 16 -38 24 l-39 15 -6 79 c-8 101 -47
238 -96 335 -140 278 -420 484 -718 529 -43 7 -88 14 -100 16 -14 3 -25 16
-33 39 -17 51 -28 52 -49 2z m201 -182 c156 -33 304 -114 422 -230 240 -236
322 -572 217 -882 -135 -395 -549 -649 -947 -579 -160 28 -272 76 -391 167
-155 121 -254 262 -310 446 -23 78 -26 105 -27 233 0 123 3 157 23 225 92 317
338 550 656 620 84 18 268 18 357 0z"/>
<path d="M1987 3073 c-2 -5 -7 -21 -11 -36 -13 -55 -77 -122 -151 -159 -185
-93 -283 -262 -272 -468 2 -47 6 -92 8 -100 3 -11 -5 -13 -33 -11 -34 2 -39
-1 -55 -33 -14 -30 -15 -39 -4 -60 12 -22 18 -23 75 -19 l61 5 38 -51 c67 -91
189 -163 310 -184 41 -6 75 -16 77 -22 1 -5 -9 -16 -24 -23 -30 -15 -31 -20
-14 -74 11 -37 14 -39 46 -36 31 3 37 8 48 40 23 67 72 117 152 153 89 42 186
134 225 215 56 115 72 248 42 346 -8 27 -15 50 -15 52 0 2 13 1 29 -3 24 -5
33 -1 55 25 29 36 31 47 12 73 -12 16 -23 17 -75 11 l-62 -7 -37 43 c-84 99
-198 158 -337 175 l-59 8 25 18 c48 38 48 37 39 70 -5 17 -14 37 -21 45 -12
15 -65 19 -72 7z m178 -257 c108 -33 200 -121 245 -236 18 -46 21 -70 18 -151
-3 -83 -8 -104 -36 -162 -122 -248 -434 -306 -636 -118 -158 149 -162 411 -8
569 105 108 262 145 417 98z"/>
<path d="M1902 2759 c-67 -26 -140 -97 -177 -174 -26 -52 -30 -72 -30 -145 0
-97 25 -165 86 -234 158 -181 453 -138 561 81 29 60 32 75 32 152 -1 72 -6 95
-28 142 -36 75 -96 135 -170 170 -52 25 -73 29 -141 28 -55 0 -96 -6 -133 -20z
m257 -98 c72 -37 131 -137 131 -221 0 -86 -65 -191 -144 -233 -63 -33 -166
-31 -228 5 -160 95 -183 308 -46 423 78 65 189 75 287 26z"/>
<path d="M2056 1193 c5 -10 10 -179 12 -375 l2 -358 55 0 55 0 0 121 0 120 27
-3 c20 -2 41 -20 78 -67 27 -35 68 -87 91 -115 l40 -51 68 -3 68 -3 -56 63
c-31 35 -85 99 -120 142 l-65 79 96 103 c53 57 101 105 107 108 6 2 -20 4 -59
5 l-70 0 -80 -94 c-71 -83 -108 -115 -120 -103 -2 2 -7 104 -11 226 l-7 222
-60 0 c-53 0 -58 -2 -51 -17z"/>
<path d="M1115 970 c-48 -7 -72 -20 -105 -55 -21 -23 -25 -36 -25 -92 0 -62 2
-67 34 -94 19 -16 65 -40 101 -54 88 -34 110 -50 110 -83 0 -33 -8 -45 -37
-61 -35 -18 -94 -13 -152 14 -30 14 -55 24 -55 23 -14 -25 -25 -62 -20 -69 11
-18 66 -40 121 -49 136 -22 243 48 243 159 0 60 -39 99 -140 140 -123 50 -149
87 -92 131 35 28 105 23 151 -10 36 -25 43 -21 59 28 11 33 11 34 -31 52 -50
21 -107 28 -162 20z"/>
<path d="M1622 969 c-24 -4 -62 -19 -85 -32 -34 -18 -41 -28 -39 -47 1 -14 9
-31 17 -39 12 -12 20 -11 55 13 100 66 200 29 200 -72 0 -33 -17 -42 -86 -42
-55 0 -142 -27 -181 -56 -55 -41 -67 -129 -26 -191 49 -74 189 -74 272 1 16
14 25 17 28 9 13 -37 46 -63 79 -63 41 0 52 20 30 52 -13 18 -16 52 -16 174 0
86 -5 166 -11 185 -17 51 -65 96 -115 108 -48 12 -61 12 -122 0z m148 -327 c0
-35 -6 -54 -20 -70 -76 -81 -214 -58 -196 33 11 53 68 82 164 84 l52 1 0 -48z"/>
<path d="M2750 950 c-24 -12 -52 -28 -62 -37 -16 -14 -16 -18 -2 -44 18 -35
24 -36 72 -4 48 32 91 40 135 26 38 -13 67 -58 67 -104 0 -27 -3 -28 -130 -42
-65 -7 -136 -40 -163 -77 -28 -37 -32 -105 -10 -148 47 -89 191 -99 280 -18
l21 20 16 -30 c17 -33 34 -42 76 -42 33 0 44 21 25 47 -11 13 -14 55 -15 164
0 248 -33 302 -184 307 -65 2 -90 -2 -126 -18z m208 -304 c3 -39 -1 -53 -20
-74 -51 -55 -133 -68 -173 -27 -29 28 -32 61 -9 93 19 27 51 41 119 52 77 12
80 11 83 -44z"/>
</g>
</svg>
